<svg viewBox="0 0 309 87" xmlns="http://www.w3.org/2000/svg" fill-rule="evenodd" clip-rule="evenodd"
     stroke-linejoin="round" stroke-miterlimit="1.4">
  <clipPath id="a">
    <path d="M0 0h308.2v86.7H0z"/>
  </clipPath>
  <g fill="#000" fill-rule="nonzero">
    <path
      d="M188.5 28.6c-5.4 0-8.8 5.4-8.8 5.4l1.7-4.6h-8.7l-4.4 12.4-1.1 2c-5 9.2-10 14.2-11.2 14.2-.6 0-.6-.5-.2-1.5L163 37h-8.3l-5.7 16c-2.3 2.8-5.7 5-7.1 5-1.4 0-1.4-1.4-1.4-2 0-4.8 5.3-22.5 16-22.5 2.4 0 4.3.4 5.7.8l1.4-4c-2-1.2-4.3-1.8-7.5-1.8-16 0-24.2 17.3-24.2 25.7 0 8.1 4.9 8.3 6.8 8.3 2.9 0 6.4-1.7 9.1-4 .3 2.8 2.6 4 5.7 4 3.3 0 6.6-2.6 9.7-6.1l-2.2 6h8.9l8-22.2s2.2-4.3 5.9-4.3c2.5 0 3.4.8 3.4.8l5.5-6.5s-1.1-1.4-4.2-1.4l.1-.1zm89.6-1.2c1.6 0 3-1.1 4.3-2.5 1.4-1.9 1.6-5.2.8-6.3h-4.8c.3.4.7 2.1.7 2.9 0 2-1.4 4-2 4.2-.2.2-.2.6-.2.7 0 .7.4 1 1.2 1z"/>
    <path
      d="M277.7 58.7h-.1a4.7 4.7 0 0 1-4.4-6.3l1.7-1.8c2.8-3.7 5-7.1 6.2-8.8.9 3.2 2.6 5 2.6 9.6 0 3-2.2 7.1-6 7.1v.2zm-75-9.7c-2.1 4.7-4.3 6.8-7.2 8.2-1.5.6-2.7.5-2.2-3.4.5-4 6.6-22.7 15.4-20.4l-6 15.6zm33.5-16c2.2-1.3 3.6-1.3 2.9 2.4 0 1.3-1.9 7.6-11 9.6 1.8-4.6 4.6-8.7 8.1-12zm27.4 0c2.2-1.3 3.6-1.3 3 2.4-.1 1.3-2 7.6-11 9.6 1.8-4.5 4.5-8.7 8-12zm24.5-3.9a10 10 0 0 0-5.7 3.6c-1.4 2-2.7 5.7-9.8 14.6-5.4 6.7-24 20.3-18.5 1.4 5.1.5 11.5-1.5 16-6.8 4.8-5.4 4.6-16.6-8.7-12.6-8 2.8-14 9.4-16 17.6l-.2.4c-4.3 5.7-24.2 21.3-18.5 1.4 5 .5 11.4-1.5 16-6.8 4.8-5.4 4.5-16.6-8.7-12.6-10 3-15.8 12.7-17 22.7l-.7.4a44.6 44.6 0 0 1-7 5c-.3.1-1 .6-.8-.3l15.7-41.2h-9l-4.8 13c-13.5-2.6-22.6 7.5-25.7 22 0 0-.6 3.6-.3 5.8.6 5 6.2 9 16 1.7 0 2.5 5.1 8.2 16.2-1.4l.5-.3c.4 1.7 1 3.1 2.5 4 4 2.8 15.2 3.4 24.7-7.1 0 3 .7 5.4 2.9 7 4.2 3.6 14.2 2.2 22.4-4.8.7 4 4.7 6.7 9.5 6.7 6.6 0 12.7-4 12.7-11.4 0-7-4.3-10.5-4.3-14.9 0-1.1 1-2.4 2.3-2.5 2-.3 3.5 1.5 3.5 1.5l4-4.7s-3.3-2.8-9.2-1.4zM88.4 60.4c-6.3 7-15.8 3.5-14.5-5 1.4-6.5 8-14.3 23.7-14-4.3 13.1-6.1 15.3-9.2 19zM130 16l-8.1 20.7H109l7.8-20.7h-10l-8.2 20.7c-11.8 0-31.2 5-33.8 17-2 9.1 3.3 14.5 14.4 14.8 19.9.4 25.5-19.9 28.2-27.4h12.8l-9.2 24.6h10l19-49.7H130zm173.8 7.3h-.4v-1h.4c.6 0 .9 0 .9.5 0 .4-.4.5-.9.5zm1.6 1c0-.4-.3-.7-.6-.8.5 0 .7-.4.7-.9 0-.3 0-.5-.4-.7l-1.1-.3c-.5 0-1 0-1.4.2v3.4h.8v-1.4h.4c.5 0 .6.3.8.5l.2.9h.9l-.3-.9z"/>
    <path
      d="M304 26.3c-1.4 0-2.7-1.3-2.7-2.9 0-1.4 1.1-2.7 2.7-2.7 1.4 0 2.7 1.3 2.7 2.9 0 1.4-1.2 2.8-2.7 2.8v-.1zm0-6.3c-2 0-3.6 1.6-3.6 3.6 0 1.8 1.6 3.4 3.6 3.4h.7c2 0 3.5-1.5 3.5-3.5A3.6 3.6 0 0 0 304 20zM48.9 37.6h-.3c-.9-1.5-2-2.7-3.4-3.4a.7.7 0 0 1-.3-.8c0-.3.4-.6.8-.4 1.5.1 3.3 2 3.5 4.2 0 .3-.2.4-.3.4zm-2.3 5c-.1 0-.6 0-.9-.3l-2-1.1c-1-.3-1.6 0-1.8 0-.3 0-.6-.1-.8-.3a1 1 0 0 1-.3-.6c-.2-.5 0-1 .4-1.4 1-.7 2.3-.7 3.6-.3a4 4 0 0 1 2.2 2.6c.2.7 0 1.1-.4 1.4zM45 51.1c-.4.5-.5-.2-1.1 0-1.1 1-4.7 3.7-8.8 3.7a9 9 0 0 1-2.6-.4l-2.4-1.1c-2.6-2-4.4-4.8-5.2-8 0-.6-.7 0-.9-.6 0-.5.3-.5 1.2-1 .5-.2 1-.7 1.4-.2.1.3 0 .4-.2.7v1c.7 1.2 1.5 2.3 2.4 3.2 1.3 1.3 2.7 2.3 4.7 2.9 2 .5 3.7.5 5.6.3a13 13 0 0 0 3.7-1.5c.4-.2.5-.5.5-.8 0-.3 0-.6.3-.7.4 0 .7.7 1 1.1.6.9.9 1.2.4 1.4zM28 35.2c.8-.7 2-1 3.4-.7a4 4 0 0 1 2.8 2.1c0 .6-.1 1.2-.5 1.5l-.7.3c-.3 0-.5-.2-.7-.3-.3-.2-.6-.7-1.5-1l-2.4-.2c-.4 0-.7 0-.8-.3-.2-.4 0-1 .4-1.4zm.4-4.2c1.4-2 3.9-2.4 5.3-1.7.4.1.4.5.4.8-.1.3-.4.6-.7.6-1.7-.3-3.4 0-4.8.8h-.2V31zm6.7 13.3c.3.2.6.3 1 .3h2.3c.2.1.5.3.5.6s-.1.5-.7.7l-2.1.4-1-.1c-.9-.3-1.4-.6-2.4-2-.4-.4-.4-.9-.3-1 .1-.3.4-.3.7 0l.9.4 1 .6v.1zm34.4 1.9c2.8-2.6 6.4-4.6 10.2-6l-.6-.3-28.4-8.6-.4-29.9c0-1.4-2-2-2.8-.7L30.5 25 2 16.3C.6 16-.6 17.6.3 18.8l17.9 23.7-17 24.1c-1 1.4.4 3 1.8 2.6l28-9.7 14.9 19.6 3 4c.8 1.3 2.8.6 2.8-.9l-.6-29.8 18.5-6.2h-.1z"/>
  </g>
</svg>
